<svg id="Layer_1" data-name="Layer 1" xmlns="http://www.w3.org/2000/svg" viewBox="0 0 548 486"><defs><style>.cls-1{fill:#000;}</style></defs><title>optimiz-react-logo</title><path class="cls-1" d="M438.45,163.74q-8.31-2.76-16.6-5.22c.92-3.79,1.74-7.58,2.56-11.37C437,86.09,428.71,37,400.74,20.83c-26.94-15.47-70.89.61-115.35,39.34C281,64,276.68,68,272.58,72c-2.77-2.66-5.64-5.33-8.5-7.89-46.62-41.39-93.34-58.81-121.3-42.52-26.85,15.58-34.84,61.78-23.57,119.56,1.13,5.74,2.36,11.37,3.79,17.11-6.55,1.85-13,3.9-19,6C49.24,183.21,10,213.13,10,244.07c0,31.29,40.06,62.68,95.09,82.24L78,364h58.38l2.78-3.75,15.49-20.86,14.52-19.55,14.17-19.08,14.31-19.27,27.71-37.32,33-44.49,28.28-38.08,15.95-21.49.09-.11,13.66-18.41,6.15-8.28,0,16.44,0,38.35L322.77,321l.05,39v4H380l-.57-23q11.16-2,22.24-4.52c1,4.21,1.94,8.41,2.76,12.5A186.75,186.75,0,0,1,407,416.9,45.51,45.51,0,0,1,390.09,449c-16.29,9.43-51-2.86-88.52-35-3.75-3.21-7.49-6.66-11.31-10.21v-3.45l0-34.15,0-16.76,0-22,0-39.45-.08-64.5-44.36,59.76L220,317.81l-20.88,28.13-59.41,80-15.56,21L104,474.07H290.34l0-40.87C333.05,469,375,483.12,401.05,468c27.66-16,36.68-64.44,25-123.45q-1.38-6.76-3.07-13.83c3.27-.92,6.45-1.95,9.63-3,59.11-19.57,101.93-51.23,101.93-83.7C534.54,213,494.18,182.9,438.45,163.74Zm-271.8,54.92c-6.46-15.27-11.89-30.23-16.4-44.67,14.76-3.28,30.43-5.94,46.72-8-5.43,8.5-10.76,17.21-15.78,26S171.26,209.64,166.65,218.66Zm-13-178.06c17.22-10,55.43,4.3,95.69,40,2.56,2.25,5.13,4.71,7.79,7.17a520,520,0,0,0-44,54.4,540.27,540.27,0,0,0-68.85,10.65c-1.33-5.22-2.46-10.55-3.58-15.88C131.1,87.32,137.45,49.92,153.63,40.6Zm-37.8,266.06c-21.82-6.86-46.61-17.72-64.54-32A45.94,45.94,0,0,1,32,244.07c0-18.75,32.37-42.73,79.09-59,5.84-2,11.78-3.89,17.72-5.63a546.3,546.3,0,0,0,25.1,65.16q-7.53,16.39-14,33.33l-21.35,29.67ZM307.91,70c35-28.17,66.73-38.78,81.77-30.12,17.31,9.94,24,50.1,13.11,102.86-.71,3.49-1.43,6.87-2.35,10.25q-12.85-2.9-25.81-5.17L372.69,70Zm67.27,100.21q10,1.81,19.42,4a454.79,454.79,0,0,1-16.5,44.47c-.6-1.12-1.19-2.23-1.8-3.35Zm3.69,148.31-1.18-47.65c.2-.4.41-.79.62-1.19a476.73,476.73,0,0,1,17.31,45.38Q387.28,317,378.87,318.52Zm46.77-11.76c-2.87.93-5.74,1.85-8.71,2.67a519.74,519.74,0,0,0-26.12-65.36,519.13,519.13,0,0,0,25.1-64.45c5.32,1.54,10.45,3.18,15.36,4.82,47.75,16.39,81.25,40.77,81.25,59.42C512.52,263.94,476.76,289.86,425.64,306.76Z"/></svg>